<?xml version="1.0" encoding="UTF-8" standalone="no"?>
<svg
   xmlns:dc="http://purl.org/dc/elements/1.1/"
   xmlns:cc="http://creativecommons.org/ns#"
   xmlns:rdf="http://www.w3.org/1999/02/22-rdf-syntax-ns#"
   xmlns:svg="http://www.w3.org/2000/svg"
   xmlns="http://www.w3.org/2000/svg"
   xmlns:sodipodi="http://sodipodi.sourceforge.net/DTD/sodipodi-0.dtd"
   xmlns:inkscape="http://www.inkscape.org/namespaces/inkscape"
   width="793.700787402"
   height="1122.51968504"
   version="1.1"
   id="svg983"
   sodipodi:docname="WaveJoint Parts A and B.svg"
   inkscape:version="0.92.2 (5c3e80d, 2017-08-06)">
  <metadata
     id="metadata987">
    <rdf:RDF>
      <cc:Work
         rdf:about="">
        <dc:format>image/svg+xml</dc:format>
        <dc:type
           rdf:resource="http://purl.org/dc/dcmitype/StillImage" />
        <dc:title></dc:title>
      </cc:Work>
    </rdf:RDF>
  </metadata>
  <sodipodi:namedview
     pagecolor="#ffffff"
     bordercolor="#666666"
     borderopacity="1"
     objecttolerance="10"
     gridtolerance="10"
     guidetolerance="10"
     inkscape:pageopacity="0"
     inkscape:pageshadow="2"
     inkscape:window-width="2560"
     inkscape:window-height="1387"
     id="namedview985"
     showgrid="false"
     inkscape:zoom="1.7776277"
     inkscape:cx="1040.0606"
     inkscape:cy="1453.7058"
     inkscape:window-x="-8"
     inkscape:window-y="-8"
     inkscape:window-maximized="1"
     inkscape:current-layer="g981" />
  <desc
     id="desc815">C:\Users\drobinet\Downloads\WaveJoint.dxf - scale = 25.400000, origin = (0.000000, 0.000000), method = file</desc>
  <defs
     id="defs829">
    <marker
       id="DistanceX"
       orient="auto"
       refX="0.0"
       refY="0.0"
       style="overflow:visible">
      <path
         d="M 3,-3 L -3,3 M 0,-5 L  0,5"
         style="stroke:#000000; stroke-width:0.5"
         id="path817" />
    </marker>
    <pattern
       height="8"
       id="Hatch"
       patternUnits="userSpaceOnUse"
       width="8"
       x="0"
       y="0">
      <path
         d="M8 4 l-4,4"
         linecap="square"
         stroke="#000000"
         stroke-width="0.25"
         id="path820" />
      <path
         d="M6 2 l-4,4"
         linecap="square"
         stroke="#000000"
         stroke-width="0.25"
         id="path822" />
      <path
         d="M4 0 l-4,4"
         linecap="square"
         stroke="#000000"
         stroke-width="0.25"
         id="path824" />
    </pattern>
    <symbol
       id="*MODEL_SPACE" />
    <symbol
       id="*PAPER_SPACE" />
  </defs>
  <g
     inkscape:groupmode="layer"
     inkscape:label="0"
     id="g831" />
  <g
     inkscape:groupmode="layer"
     inkscape:label="DEFPOINTS"
     id="g833" />
  <g
     inkscape:groupmode="layer"
     inkscape:label="ANNOTATION_TEXT"
     id="g835" />
  <g
     inkscape:groupmode="layer"
     inkscape:label="VISIBLE"
     id="g981">
    <path
       d="M 463.969988,-466.677664 463.969988,-490.677664"
       style="stroke:#000000;fill:none"
       id="path869" />
    <path
       d="M 625.249988,-490.677664 A 80.640000,80.640000 -0.000000 0 0 463.969988,-490.677664"
       style="stroke:#000000;fill:none"
       id="path871" />
    <path
       d="M 625.249988,-490.677664 625.249988,-442.677664"
       style="stroke:#000000;fill:none"
       id="path873" />
    <path
       d="M 625.249988,-442.677664 A 63.360000,63.360000 -0.000000 0 0 751.969988,-442.677664"
       style="stroke:#000000;fill:none"
       id="path875" />
    <path
       d="M 751.969988,-442.677664 751.969988,-490.677664"
       style="stroke:#000000;fill:none"
       id="path877" />
    <path
       d="M 913.249988,-490.677664 A 80.640000,80.640000 -0.000000 0 0 751.969988,-490.677664"
       style="stroke:#000000;fill:none"
       id="path879" />
    <path
       d="M 913.249988,-490.677664 913.249988,-442.677664"
       style="stroke:#000000;fill:none"
       id="path881" />
    <path
       d="M 913.249988,-442.677664 A 63.360000,63.360000 -0.000000 0 0 1039.969988,-442.677664"
       style="stroke:#000000;fill:none"
       id="path883" />
    <path
       d="M 1039.969988,-442.677664 1039.969988,-490.677664"
       style="stroke:#000000;fill:none"
       id="path885" />
    <path
       d="M 1201.249988,-490.677664 A 80.640000,80.640000 -0.000000 0 0 1039.969988,-490.677664"
       style="stroke:#000000;fill:none"
       id="path887" />
    <path
       d="M 1201.249988,-490.677664 1201.249988,-442.677664"
       style="stroke:#000000;fill:none"
       id="path889" />
    <path
       d="M 1201.249988,-442.677664 A 63.360000,63.360000 -0.000000 0 0 1327.969988,-442.677664"
       style="stroke:#000000;fill:none"
       id="path891" />
    <path
       d="M 1327.969988,-442.677664 1327.969988,-490.677664"
       style="stroke:#000000;fill:none"
       id="path893" />
    <path
       d="M 1489.249988,-490.677664 A 80.640000,80.640000 -0.000000 0 0 1327.969988,-490.677664"
       style="stroke:#000000;fill:none"
       id="path895" />
    <path
       d="M 1489.249988,-490.677664 1489.249988,-442.677664"
       style="stroke:#000000;fill:none"
       id="path897" />
    <path
       d="M 1489.249988,-442.677664 A 63.360000,63.360000 -0.000000 0 0 1615.969988,-442.677664"
       style="stroke:#000000;fill:none"
       id="path899" />
    <path
       d="M 1615.969988,-442.677664 1615.969988,-466.677664"
       style="stroke:#000000;fill:none"
       id="path901" />
    <path
       d="M 1616.151195,-171.694658 1616.151195,-195.694658"
       style="stroke:#000000;fill:none"
       id="path911" />
    <path
       d="M 1454.871195,-171.694658 A 80.640000,80.640000 -0.000000 0 0 1616.151195,-171.694658"
       style="stroke:#000000;fill:none"
       id="path913" />
    <path
       d="M 1454.871195,-219.694658 1454.871195,-171.694658"
       style="stroke:#000000;fill:none"
       id="path915" />
    <path
       d="M 1454.871195,-219.694658 A 63.360000,63.360000 -0.000000 0 0 1328.151195,-219.694658"
       style="stroke:#000000;fill:none"
       id="path917" />
    <path
       d="M 1328.151195,-171.694658 1328.151195,-219.694658"
       style="stroke:#000000;fill:none"
       id="path919" />
    <path
       d="M 1166.871195,-171.694658 A 80.640000,80.640000 -0.000000 0 0 1328.151195,-171.694658"
       style="stroke:#000000;fill:none"
       id="path921" />
    <path
       d="M 1166.871195,-219.694658 1166.871195,-171.694658"
       style="stroke:#000000;fill:none"
       id="path923" />
    <path
       d="M 1166.871195,-219.694658 A 63.360000,63.360000 -0.000000 0 0 1040.151195,-219.694658"
       style="stroke:#000000;fill:none"
       id="path925" />
    <path
       d="M 1040.151195,-171.694658 1040.151195,-219.694658"
       style="stroke:#000000;fill:none"
       id="path927" />
    <path
       d="M 878.871195,-171.694658 A 80.640000,80.640000 -0.000000 0 0 1040.151195,-171.694658"
       style="stroke:#000000;fill:none"
       id="path929" />
    <path
       d="M 878.871195,-219.694658 878.871195,-171.694658"
       style="stroke:#000000;fill:none"
       id="path931" />
    <path
       d="M 878.871195,-219.694658 A 63.360000,63.360000 -0.000000 0 0 752.151195,-219.694658"
       style="stroke:#000000;fill:none"
       id="path933" />
    <path
       d="M 752.151195,-171.694658 752.151195,-219.694658"
       style="stroke:#000000;fill:none"
       id="path935" />
    <path
       d="M 590.871195,-171.694658 A 80.640000,80.640000 -0.000000 0 0 752.151195,-171.694658"
       style="stroke:#000000;fill:none"
       id="path937" />
    <path
       d="M 590.871195,-219.694658 590.871195,-171.694658"
       style="stroke:#000000;fill:none"
       id="path939" />
    <path
       d="M 590.871195,-219.694658 A 63.360000,63.360000 -0.000000 0 0 464.151195,-219.694658"
       style="stroke:#000000;fill:none"
       id="path941" />
    <path
       d="M 464.151195,-195.694658 464.151195,-219.694658"
       style="stroke:#000000;fill:none"
       id="path943" />
    <text
       xml:space="preserve"
       style="font-style:normal;font-weight:normal;font-size:40px;line-height:1.25;font-family:sans-serif;letter-spacing:0px;word-spacing:0px;fill:#000000;fill-opacity:1;stroke:none"
       x="608.67639"
       y="-623.06525"
       id="text4680"><tspan
         sodipodi:role="line"
         id="tspan4678"
         x="608.67639"
         y="-623.06525">Part B cut line</tspan></text>
    <text
       xml:space="preserve"
       style="font-style:normal;font-weight:normal;font-size:40px;line-height:1.25;font-family:sans-serif;letter-spacing:0px;word-spacing:0px;fill:#000000;fill-opacity:1;stroke:none"
       x="714.99786"
       y="-43.078758"
       id="text4684"><tspan
         sodipodi:role="line"
         id="tspan4682"
         x="714.99786"
         y="-43.078758">Part A cut line</tspan></text>
  </g>
</svg>
